<mxfile host="app.diagrams.net" modified="2021-10-26T09:50:38.929Z" agent="5.0 (Windows NT 10.0; Win64; x64) AppleWebKit/537.36 (KHTML, like Gecko) Chrome/94.0.4606.81 Safari/537.36" etag="d8GZ0d06PUjPora39EtE" version="15.5.8" type="github">
  <diagram id="C5RBs43oDa-KdzZeNtuy" name="Page-1">
    <mxGraphModel dx="754" dy="1789" grid="1" gridSize="10" guides="1" tooltips="1" connect="1" arrows="1" fold="1" page="1" pageScale="1" pageWidth="827" pageHeight="1169" math="0" shadow="0">
      <root>
        <mxCell id="WIyWlLk6GJQsqaUBKTNV-0" />
        <mxCell id="WIyWlLk6GJQsqaUBKTNV-1" parent="WIyWlLk6GJQsqaUBKTNV-0" />
        <mxCell id="eQQH6_qGnLRwTtrfsNVX-0" value="&lt;p style=&quot;margin: 0px ; margin-top: 4px ; text-align: center&quot;&gt;&lt;b&gt;&amp;lt;StatsDaily&amp;gt;&lt;/b&gt;&lt;/p&gt;&lt;hr size=&quot;1&quot;&gt;&lt;p style=&quot;margin: 0px ; margin-left: 4px&quot;&gt;h2 : Daily Nutrition info&lt;br&gt;&lt;/p&gt;&lt;p style=&quot;margin: 0px ; margin-left: 4px&quot;&gt;{graph} :&amp;nbsp;&lt;/p&gt;&lt;p style=&quot;margin: 0px ; margin-left: 4px&quot;&gt;&lt;br&gt;&lt;/p&gt;&lt;hr size=&quot;1&quot;&gt;&lt;p style=&quot;margin: 0px ; margin-left: 4px&quot;&gt;&lt;br&gt;&lt;/p&gt;" style="verticalAlign=top;align=left;overflow=fill;fontSize=12;fontFamily=Helvetica;html=1;rounded=0;shadow=0;comic=0;labelBackgroundColor=none;strokeWidth=1" vertex="1" parent="WIyWlLk6GJQsqaUBKTNV-1">
          <mxGeometry x="50" y="-1140" width="190" height="130" as="geometry" />
        </mxCell>
        <mxCell id="eQQH6_qGnLRwTtrfsNVX-1" value="&lt;p style=&quot;margin: 0px ; margin-top: 4px ; text-align: center&quot;&gt;&lt;b&gt;&amp;lt;StatsWeekly&amp;gt;&lt;/b&gt;&lt;/p&gt;&lt;hr size=&quot;1&quot;&gt;&lt;p style=&quot;margin: 0px ; margin-left: 4px&quot;&gt;h2 : Weekly Nutrition info&lt;br&gt;&lt;/p&gt;&lt;p style=&quot;margin: 0px ; margin-left: 4px&quot;&gt;{graph} :&lt;br&gt;&lt;/p&gt;&lt;p style=&quot;margin: 0px ; margin-left: 4px&quot;&gt;&lt;br&gt;&lt;/p&gt;&lt;hr size=&quot;1&quot;&gt;&lt;p style=&quot;margin: 0px ; margin-left: 4px&quot;&gt;&lt;br&gt;&lt;/p&gt;" style="verticalAlign=top;align=left;overflow=fill;fontSize=12;fontFamily=Helvetica;html=1;rounded=0;shadow=0;comic=0;labelBackgroundColor=none;strokeWidth=1" vertex="1" parent="WIyWlLk6GJQsqaUBKTNV-1">
          <mxGeometry x="260" y="-1140" width="190" height="130" as="geometry" />
        </mxCell>
        <mxCell id="eQQH6_qGnLRwTtrfsNVX-2" value="&lt;p style=&quot;margin: 0px ; margin-top: 4px ; text-align: center&quot;&gt;&lt;b&gt;&amp;lt;StatsMonthly&amp;gt;&lt;/b&gt;&lt;/p&gt;&lt;hr size=&quot;1&quot;&gt;&lt;p style=&quot;margin: 0px ; margin-left: 4px&quot;&gt;h2 : Monthly Nutrition info&lt;br&gt;&lt;/p&gt;&lt;p style=&quot;margin: 0px ; margin-left: 4px&quot;&gt;{graph} :&lt;br&gt;&lt;/p&gt;&lt;p style=&quot;margin: 0px ; margin-left: 4px&quot;&gt;&lt;br&gt;&lt;/p&gt;&lt;hr size=&quot;1&quot;&gt;&lt;p style=&quot;margin: 0px ; margin-left: 4px&quot;&gt;&lt;br&gt;&lt;/p&gt;" style="verticalAlign=top;align=left;overflow=fill;fontSize=12;fontFamily=Helvetica;html=1;rounded=0;shadow=0;comic=0;labelBackgroundColor=none;strokeWidth=1" vertex="1" parent="WIyWlLk6GJQsqaUBKTNV-1">
          <mxGeometry x="470" y="-1140" width="190" height="130" as="geometry" />
        </mxCell>
        <mxCell id="eQQH6_qGnLRwTtrfsNVX-3" value="&lt;p style=&quot;margin: 0px ; margin-top: 4px ; text-align: center&quot;&gt;&lt;b&gt;Nutrition Analysis&lt;/b&gt;&lt;/p&gt;&lt;p style=&quot;margin: 0px ; margin-top: 4px ; text-align: center&quot;&gt;/statistics&lt;/p&gt;&lt;hr size=&quot;1&quot;&gt;&lt;p style=&quot;margin: 0px ; margin-left: 4px&quot;&gt;h1 : Nutrition Statistics &amp;amp; Analysis&lt;/p&gt;&lt;p style=&quot;margin: 0px ; margin-left: 4px&quot;&gt;&amp;lt;StatsDaily /&amp;gt;&lt;/p&gt;&lt;p style=&quot;margin: 0px ; margin-left: 4px&quot;&gt;&amp;lt;StatsWeekly /&amp;gt;&lt;/p&gt;&lt;p style=&quot;margin: 0px ; margin-left: 4px&quot;&gt;&amp;lt;StatsMonthly /&amp;gt;&lt;/p&gt;&lt;p style=&quot;margin: 0px 0px 0px 4px&quot;&gt;last-week-record-button (?)&lt;/p&gt;&lt;p style=&quot;margin: 0px 0px 0px 4px&quot;&gt;last-month-record-button (?)&lt;/p&gt;&lt;p style=&quot;margin: 0px 0px 0px 4px&quot;&gt;button: main-page-button&lt;/p&gt;&lt;p style=&quot;margin: 0px 0px 0px 4px&quot;&gt;button: logout-button&lt;/p&gt;&lt;hr size=&quot;1&quot;&gt;&lt;p style=&quot;margin: 0px 0px 0px 4px&quot;&gt;+ onClickedMainPageButton&lt;/p&gt;&lt;p style=&quot;margin: 0px 0px 0px 4px&quot;&gt;+ onClcikedLoginPageButton&lt;/p&gt;" style="verticalAlign=top;align=left;overflow=fill;fontSize=12;fontFamily=Helvetica;html=1;rounded=0;shadow=0;comic=0;labelBackgroundColor=none;strokeWidth=1" vertex="1" parent="WIyWlLk6GJQsqaUBKTNV-1">
          <mxGeometry x="460" y="-750" width="190" height="270" as="geometry" />
        </mxCell>
        <mxCell id="eQQH6_qGnLRwTtrfsNVX-4" value="&lt;p style=&quot;margin: 4px 0px 0px ; text-align: center&quot;&gt;&lt;b style=&quot;font-family: &amp;#34;verdana&amp;#34; ; font-size: 10px&quot;&gt;Sign up&lt;/b&gt;&lt;br style=&quot;font-family: &amp;#34;verdana&amp;#34; ; font-size: 10px&quot;&gt;&lt;span style=&quot;font-family: &amp;#34;verdana&amp;#34; ; font-size: 10px&quot;&gt;/signup&lt;/span&gt;&lt;br&gt;&lt;/p&gt;&lt;hr size=&quot;1&quot;&gt;&lt;p style=&quot;margin: 0px 0px 0px 4px&quot;&gt;h1: sign up page&lt;/p&gt;&lt;p style=&quot;margin: 0px 0px 0px 4px&quot;&gt;input: username-input&lt;/p&gt;&lt;p style=&quot;margin: 0px 0px 0px 4px&quot;&gt;input: password-input&lt;/p&gt;&lt;p style=&quot;margin: 0px 0px 0px 4px&quot;&gt;button: check-username-button&lt;/p&gt;&lt;p style=&quot;margin: 0px 0px 0px 4px&quot;&gt;button: register-button&lt;/p&gt;&lt;p style=&quot;margin: 0px 0px 0px 4px&quot;&gt;button: login-page-button&lt;/p&gt;&lt;hr size=&quot;1&quot;&gt;&amp;nbsp;+onChangedUsernameInput&lt;br&gt;&amp;nbsp;+onChangedPasswdInput&lt;br&gt;&lt;p style=&quot;margin: 0px 0px 0px 4px&quot;&gt;+onClickedCheckUsernameButton&lt;/p&gt;&lt;p style=&quot;margin: 0px 0px 0px 4px&quot;&gt;+onClickedRegisterButton&lt;/p&gt;&lt;p style=&quot;margin: 0px 0px 0px 4px&quot;&gt;+onClickedLoginPageButton&lt;/p&gt;" style="verticalAlign=top;align=left;overflow=fill;fontSize=12;fontFamily=Helvetica;html=1;" vertex="1" parent="WIyWlLk6GJQsqaUBKTNV-1">
          <mxGeometry x="37.5" y="-750" width="191.25" height="220" as="geometry" />
        </mxCell>
        <mxCell id="eQQH6_qGnLRwTtrfsNVX-5" value="&lt;p style=&quot;margin: 4px 0px 0px ; text-align: center&quot;&gt;&lt;b style=&quot;font-family: &amp;#34;verdana&amp;#34; ; font-size: 10px&quot;&gt;Setting&lt;/b&gt;&lt;br style=&quot;font-family: &amp;#34;verdana&amp;#34; ; font-size: 10px&quot;&gt;&lt;span style=&quot;font-family: &amp;#34;verdana&amp;#34; ; font-size: 10px&quot;&gt;/setting&lt;/span&gt;&lt;br&gt;&lt;/p&gt;&lt;hr size=&quot;1&quot;&gt;&lt;p style=&quot;margin: 0px 0px 0px 4px&quot;&gt;h1: setting page&lt;/p&gt;&lt;p style=&quot;margin: 0px 0px 0px 4px&quot;&gt;div: current setting info&lt;/p&gt;&lt;p style=&quot;margin: 0px 0px 0px 4px&quot;&gt;input: user-sex-input&lt;/p&gt;&lt;p style=&quot;margin: 0px 0px 0px 4px&quot;&gt;input: user-age-input&lt;/p&gt;&lt;p style=&quot;margin: 0px 0px 0px 4px&quot;&gt;input: user-height-input&lt;/p&gt;&lt;p style=&quot;margin: 0px 0px 0px 4px&quot;&gt;input: user-weight-input&lt;/p&gt;&lt;p style=&quot;margin: 0px 0px 0px 4px&quot;&gt;input: user-food-no-eat-input&lt;br&gt;&lt;/p&gt;&lt;p style=&quot;margin: 0px 0px 0px 4px&quot;&gt;button: user-food-no-eat-button&lt;/p&gt;&lt;p style=&quot;margin: 0px 0px 0px 4px&quot;&gt;&lt;span&gt;button: confirm-button&lt;/span&gt;&lt;br&gt;&lt;/p&gt;&lt;p style=&quot;margin: 0px 0px 0px 4px&quot;&gt;button: main-page-button&lt;/p&gt;&lt;p style=&quot;margin: 0px 0px 0px 4px&quot;&gt;button: login-page-button&lt;/p&gt;&lt;hr size=&quot;1&quot;&gt;&lt;p style=&quot;margin: 0px 0px 0px 4px&quot;&gt;+ onChangedUserSexInput&lt;/p&gt;&lt;p style=&quot;margin: 0px 0px 0px 4px&quot;&gt;+ onChangedUserAgedInput&lt;/p&gt;&lt;p style=&quot;margin: 0px 0px 0px 4px&quot;&gt;+ onChangedUserHeightInput&lt;/p&gt;&lt;p style=&quot;margin: 0px 0px 0px 4px&quot;&gt;+ onChangedUserWeightInput&lt;/p&gt;&lt;p style=&quot;margin: 0px 0px 0px 4px&quot;&gt;+ onChangedUserFoodNoEatInput&lt;/p&gt;&lt;p style=&quot;margin: 0px 0px 0px 4px&quot;&gt;+ onClickedUserFoodNoEatButton&lt;/p&gt;&lt;p style=&quot;margin: 0px 0px 0px 4px&quot;&gt;+ onCllickedConfirmButton&lt;/p&gt;&lt;p style=&quot;margin: 0px 0px 0px 4px&quot;&gt;+ onClickedMainPageButton&lt;/p&gt;&lt;p style=&quot;margin: 0px 0px 0px 4px&quot;&gt;+ onClcikedLoginPageButton&lt;/p&gt;&lt;p style=&quot;margin: 0px 0px 0px 4px&quot;&gt;&lt;br&gt;&lt;/p&gt;" style="verticalAlign=top;align=left;overflow=fill;fontSize=12;fontFamily=Helvetica;html=1;" vertex="1" parent="WIyWlLk6GJQsqaUBKTNV-1">
          <mxGeometry x="250" y="-750" width="191.25" height="369" as="geometry" />
        </mxCell>
        <mxCell id="eQQH6_qGnLRwTtrfsNVX-6" style="edgeStyle=orthogonalEdgeStyle;rounded=0;orthogonalLoop=1;jettySize=auto;html=1;exitX=0.5;exitY=1;exitDx=0;exitDy=0;" edge="1" parent="WIyWlLk6GJQsqaUBKTNV-1" source="eQQH6_qGnLRwTtrfsNVX-1" target="eQQH6_qGnLRwTtrfsNVX-1">
          <mxGeometry relative="1" as="geometry" />
        </mxCell>
      </root>
    </mxGraphModel>
  </diagram>
</mxfile>
